<svg xmlns="http://www.w3.org/2000/svg" fill="none" viewBox="0 0 21 128">
  <g fill="#212121" clip-path="url(#a)">
    <path d="M.404 128v-3.409l14.013-3.874-13.98-3.853-.033-3.402 14.013-3.874-14.013-3.847v-3.408l19.402 5.659v3.2L6.01 115.173l13.797 3.948v3.2L.404 128Zm-.337-26.516v-3.247h2.978v3.247H.067Zm5.188 0v-3.247h14.551v3.247H5.255Zm-.061-12.713c.03.458.116.91.256 1.348.132.419.325.816.573 1.179.258.411.589.772.977 1.064.19.144.389.274.596.39H5.255v2.864h14.551v-3.26H12.41a5.79 5.79 0 0 1-1.603-.203 3.73 3.73 0 0 1-1.26-.633 3.35 3.35 0 0 1-.91-1.091 3.778 3.778 0 0 1-.464-1.503 3.874 3.874 0 0 1 .114-1.516H5.255a5.83 5.83 0 0 0-.06 1.361Zm8.239-14.181V73c-1.733-.112-3.25.083-4.547.586a6.166 6.166 0 0 0-2.991 2.358c-.7 1.065-1.051 2.343-1.051 3.834a7.242 7.242 0 0 0 .977 3.759 6.664 6.664 0 0 0 2.742 2.56c1.18.612 2.557.917 4.13.916a8.01 8.01 0 0 0 3.9-.937 6.648 6.648 0 0 0 2.668-2.62 7.732 7.732 0 0 0 .95-3.874 7.304 7.304 0 0 0-.492-2.668 6.737 6.737 0 0 0-1.428-2.243 6.569 6.569 0 0 0-2.23-1.516l-.97 3.2a3.477 3.477 0 0 1 1.542 1.348 3.89 3.89 0 0 1 .533 2.061 3.827 3.827 0 0 1-.54 2.089 3.278 3.278 0 0 1-1.576 1.286 5.737 5.737 0 0 1-1.617.386v-8.942.007ZM8.24 81.832c-.364-.582-.545-1.312-.545-2.19 0-.785.161-1.43.485-1.933a2.863 2.863 0 0 1 1.482-1.111c.427-.15.87-.252 1.32-.303v7.16a5.638 5.638 0 0 1-1.118-.309 3.264 3.264 0 0 1-1.624-1.307v-.007ZM.404 61.137h5.568a5.45 5.45 0 0 1-.131.168c-.66.953-.99 2.103-.99 3.45a6.418 6.418 0 0 0 .99 3.556 6.517 6.517 0 0 0 2.735 2.372 9.039 9.039 0 0 0 3.954.842 9.094 9.094 0 0 0 3.921-.822A6.569 6.569 0 0 0 19.2 68.38a6.167 6.167 0 0 0 1.01-3.483c0-1.374-.332-2.549-.997-3.523a6.16 6.16 0 0 0-.493-.627h1.086v-2.863H.404v3.254Zm14.653-.02c.662.22 1.241.638 1.657 1.199.39.539.586 1.23.586 2.075a3.369 3.369 0 0 1-.626 2.061c-.428.57-1.014 1-1.685 1.24a6.95 6.95 0 0 1-2.452.404 6.685 6.685 0 0 1-2.439-.418 3.706 3.706 0 0 1-1.704-1.273 3.49 3.49 0 0 1-.626-2.122c0-.809.197-1.476.592-2.001a3.463 3.463 0 0 1 1.658-1.165 7.566 7.566 0 0 1 2.526-.378 7.491 7.491 0 0 1 2.513.384v-.006ZM19.22 53a6.452 6.452 0 0 1-2.735 2.46 9.046 9.046 0 0 1-3.954.86 8.909 8.909 0 0 1-3.975-.881 6.517 6.517 0 0 1-2.722-2.494c-.656-1.082-.984-2.345-.984-3.791a7.634 7.634 0 0 1 .56-2.978 5.778 5.778 0 0 1 1.61-2.218 5.975 5.975 0 0 1 2.479-1.246l.876 3.235a3.61 3.61 0 0 0-1.82 1.246 3.219 3.219 0 0 0-.66 2.001c0 1.22.423 2.14 1.267 2.76.844.62 1.967.93 3.368.93a6.534 6.534 0 0 0 2.446-.42 3.315 3.315 0 0 0 2.19-3.272c0-.835-.191-1.509-.573-2.02-.382-.513-.96-.897-1.732-1.153l.741-3.316c1.483.45 2.621 1.235 3.416 2.358.795 1.123 1.192 2.5 1.192 4.133 0 1.463-.33 2.732-.99 3.806ZM5.194 34.245c.03.458.116.91.256 1.347.132.42.325.817.573 1.18.258.41.589.772.977 1.064.19.143.388.274.596.39H5.255v2.864h14.551v-3.261H12.41a5.798 5.798 0 0 1-1.603-.202 3.73 3.73 0 0 1-1.26-.633 3.35 3.35 0 0 1-.91-1.092 3.777 3.777 0 0 1-.464-1.489 3.874 3.874 0 0 1 .114-1.515H5.255a5.83 5.83 0 0 0-.06 1.347Zm3.813-14.424a4.27 4.27 0 0 0-1.448.458A4.295 4.295 0 0 0 5.51 22.4c-.44.963-.66 2.122-.66 3.477 0 1.662.361 3.01 1.084 4.042a5.354 5.354 0 0 0 2.991 2.11l.93-2.964a2.595 2.595 0 0 1-1.543-1.212 3.942 3.942 0 0 1-.491-1.967 4.113 4.113 0 0 1 .31-1.739 1.91 1.91 0 0 1 .963-.956 3.55 3.55 0 0 1 1.19-.285l.022.143c.235 1.662.43 2.944.586 3.847.13.793.322 1.575.573 2.338.388 1.14.94 1.977 1.657 2.513.718.535 1.616.802 2.695.801a4.38 4.38 0 0 0 2.217-.572 4.083 4.083 0 0 0 1.59-1.684c.408-.815.61-1.717.586-2.628a7.606 7.606 0 0 0-.324-2.317 5.221 5.221 0 0 0-.99-1.8 6.708 6.708 0 0 0-1.054-.99h1.963v-2.842H10.88a15.465 15.465 0 0 0-1.873.107Zm6.205 3.45c.413.15.793.378 1.118.673.394.353.708.785.923 1.267.258.573.384 1.197.37 1.826.013.438-.068.874-.235 1.28a1.78 1.78 0 0 1-.654.794 1.72 1.72 0 0 1-.956.27 1.554 1.554 0 0 1-1.139-.445 3.561 3.561 0 0 1-.774-1.32 13.966 13.966 0 0 1-.418-1.684 85.305 85.305 0 0 1-.472-2.803l-.027-.168c.413 0 .8.023 1.159.059.379.028.751.113 1.105.25ZM13.676 4.273H7.8V0H5.255v4.273H1.213v3.233h4.042v5.619h-.93a1.656 1.656 0 0 1-1.233-.458c-.3-.306-.451-.764-.451-1.374V9.608H0v2.102c-.003.443.017.886.06 1.327.049.423.167.835.35 1.22.208.441.504.835.87 1.159.306.283.668.498 1.063.633.371.13.755.215 1.146.256.369.035.808.059 1.32.067h.445v2.345H7.8v-2.345h12.005v-3.247H7.801V7.506h6.697c.674.026 1.35.003 2.02-.067a4.331 4.331 0 0 0 1.503-.485c.98-.529 1.597-1.423 1.853-2.681.256-1.259.233-2.683-.068-4.271h-2.721c.147.838.177 1.693.087 2.54a1.909 1.909 0 0 1-.882 1.434 1.81 1.81 0 0 1-.829.263c-.455.036-.911.047-1.367.034h-.418Z"/>
  </g>
  <defs>
    <clipPath id="a">
      <path fill="#fff" d="M0 0h128v20.21H0z" transform="rotate(-90 64 64)"/>
    </clipPath>
  </defs>
</svg>
